<?xml version="1.0" encoding="UTF-8"?><svg id="uuid-a02f851c-9319-41ef-b53e-6add13cf84df" xmlns="http://www.w3.org/2000/svg" width="142.25" height="17.04" viewBox="0 0 142.25 17.04"><defs><style>.uuid-c58bbf2a-fed2-4eda-9082-0ef63af78108{fill:#1d262c;}</style></defs><g id="uuid-14f85049-6400-4dd7-bb7c-85caa785f93d"><g id="uuid-2983971f-9e38-4dff-92e4-facfc07a3c7f"><g><g><g><path class="uuid-c58bbf2a-fed2-4eda-9082-0ef63af78108" d="M81.23,4.19c-.43,.44-.8,.93-1.11,1.45l-.47-.24c-.07-.3-.35-.5-.66-.47-.33,.04-.57,.34-.53,.67,.04,.33,.34,.57,.67,.53,.07,0,.13-.03,.18-.05l.45,.23c-.25,.55-.43,1.14-.54,1.74l.75,.13c.23-1.31,.85-2.51,1.79-3.47l-.54-.53Z"/><path class="uuid-c58bbf2a-fed2-4eda-9082-0ef63af78108" d="M86.72,1.89c-.17,0-.34,0-.51,.02l-.07-.63c.19-.15,.3-.39,.27-.64-.05-.39-.4-.67-.79-.63-.39,.05-.67,.4-.63,.8,.03,.25,.19,.46,.41,.56l.07,.62c-.71,.12-1.4,.33-2.06,.65l.33,.68c.93-.45,1.94-.67,3-.67,.5,0,.99,.05,1.47,.16l.16-.74c-.54-.12-1.08-.17-1.64-.17Z"/><path class="uuid-c58bbf2a-fed2-4eda-9082-0ef63af78108" d="M93.32,4.43c.33-.04,.57-.34,.53-.67-.04-.33-.34-.57-.67-.53-.31,.04-.54,.3-.53,.61l-.42,.36c-.42-.43-.89-.81-1.41-1.14l-.4,.64c1.13,.71,2.02,1.73,2.56,2.93l.69-.31c-.25-.55-.57-1.07-.94-1.54l.4-.35c.06,.01,.12,.02,.19,0Z"/><path class="uuid-c58bbf2a-fed2-4eda-9082-0ef63af78108" d="M86.17,12.1c-.39,.02-.77,.03-1.16,.03-.88,0-1.73-.06-2.48-.18-.39-.06-.85-.16-1.27-.29,1.05,1.86,3.07,3.12,5.39,3.12,2.86,0,5.26-1.92,5.95-4.5-.68,.45-1.51,.83-2.46,1.12-1.18,.37-2.55,.61-3.97,.69Z"/><path class="uuid-c58bbf2a-fed2-4eda-9082-0ef63af78108" d="M86.72,3.4c-3.35,0-6.08,2.67-6.08,5.94,0,.43,.05,.85,.14,1.26,.67,.48,2.71,.89,5.35,.73,2.88-.17,5.3-.96,6.67-2.16,0-.2-.02-.39-.04-.58-.38-2.96-2.97-5.2-6.03-5.2Zm-2.16,6.51c-1.02,0-1.85-.83-1.85-1.85s.83-1.85,1.85-1.85,1.85,.83,1.85,1.85-.83,1.85-1.85,1.85Zm4.74-.91c-.75,0-1.36-.61-1.36-1.36s.61-1.36,1.36-1.36,1.36,.61,1.36,1.36-.61,1.36-1.36,1.36Z"/></g><path class="uuid-c58bbf2a-fed2-4eda-9082-0ef63af78108" d="M102.72,5.27c-.29-.12-.81-.31-1.38-.24-.55,.07-.84,.34-.84,1.01v.87h2.23v1.72h-2.23v5.45h-1.93v-5.45h-1.34v-1.72h1.34v-.89c0-1.68,.9-2.78,2.57-2.78,.64,0,1.16,.12,1.59,.31v1.73Z"/><path class="uuid-c58bbf2a-fed2-4eda-9082-0ef63af78108" d="M107.42,8.6c-.18-.03-.36-.05-.53-.05-.9,0-1.51,.55-1.51,1.61v3.91h-1.93V6.91h1.87v.79c.45-.67,1.14-.98,2.02-.98,.41,0,.85,.13,1.09,.34l-1.02,1.55Z"/><path class="uuid-c58bbf2a-fed2-4eda-9082-0ef63af78108" d="M115.09,10.48c0,.22-.01,.49-.04,.65h-5.08c.21,1.04,.93,1.49,1.84,1.49,.62,0,1.29-.25,1.81-.69l1.13,1.24c-.81,.75-1.85,1.09-3.06,1.09-2.2,0-3.72-1.5-3.72-3.75s1.48-3.8,3.63-3.8,3.48,1.53,3.49,3.77Zm-5.11-.67h3.17c-.18-.92-.73-1.44-1.56-1.44-.91,0-1.44,.55-1.61,1.44Z"/><path class="uuid-c58bbf2a-fed2-4eda-9082-0ef63af78108" d="M122.74,10.48c0,.22-.01,.49-.04,.65h-5.08c.21,1.04,.93,1.49,1.84,1.49,.62,0,1.3-.25,1.81-.69l1.13,1.24c-.81,.75-1.85,1.09-3.06,1.09-2.2,0-3.72-1.5-3.72-3.75s1.48-3.8,3.63-3.8,3.48,1.53,3.49,3.77Zm-5.11-.67h3.18c-.18-.92-.73-1.44-1.56-1.44-.91,0-1.44,.55-1.61,1.44Z"/><path class="uuid-c58bbf2a-fed2-4eda-9082-0ef63af78108" d="M131.09,10.49c0,2.15-1.5,3.77-3.47,3.77-.96,0-1.64-.38-2.11-.93v3.71h-1.92V6.91h1.89v.79c.47-.58,1.15-.98,2.14-.98,1.98,0,3.48,1.62,3.48,3.78Zm-5.68,0c0,1.13,.75,1.98,1.84,1.98s1.85-.88,1.85-1.98-.71-1.98-1.85-1.98-1.84,.84-1.84,1.98Z"/><path class="uuid-c58bbf2a-fed2-4eda-9082-0ef63af78108" d="M134.19,4.56c0,.7-.54,1.23-1.24,1.23s-1.23-.53-1.23-1.23,.53-1.24,1.23-1.24,1.24,.55,1.24,1.24Zm-.26,9.52h-1.93V6.91h1.93v7.17Z"/><path class="uuid-c58bbf2a-fed2-4eda-9082-0ef63af78108" d="M137.16,9.46l2.7-2.55h2.37l-3.48,3.38,3.5,3.8h-2.38l-2.72-2.9v2.9h-1.93V3.42h1.93v6.04Z"/></g><g><path class="uuid-c58bbf2a-fed2-4eda-9082-0ef63af78108" d="M5.54,14.01v-1.05c-.53,.72-1.39,1.23-2.39,1.23-1.85,0-3.15-1.41-3.15-3.71s1.29-3.72,3.15-3.72c.95,0,1.82,.47,2.39,1.25v-3.76h1.1V14.01h-1.1Zm0-1.92v-3.21c-.4-.62-1.25-1.14-2.12-1.14-1.42,0-2.27,1.17-2.27,2.74s.85,2.72,2.27,2.72c.88,0,1.73-.5,2.12-1.11Z"/><path class="uuid-c58bbf2a-fed2-4eda-9082-0ef63af78108" d="M8.06,10.47c0-2.05,1.46-3.71,3.49-3.71,2.14,0,3.4,1.67,3.4,3.79v.28h-5.73c.09,1.33,1.03,2.45,2.55,2.45,.81,0,1.63-.32,2.18-.89l.53,.72c-.7,.7-1.66,1.08-2.81,1.08-2.09,0-3.6-1.51-3.6-3.72Zm3.47-2.8c-1.51,0-2.26,1.27-2.31,2.36h4.64c-.01-1.05-.72-2.36-2.33-2.36Z"/><path class="uuid-c58bbf2a-fed2-4eda-9082-0ef63af78108" d="M15.73,13.08l.57-.79c.47,.54,1.36,1.01,2.33,1.01,1.08,0,1.67-.51,1.67-1.22,0-1.71-4.38-.66-4.38-3.28,0-1.1,.95-2.04,2.64-2.04,1.2,0,2.05,.45,2.62,1.03l-.51,.76c-.42-.51-1.2-.89-2.11-.89-.97,0-1.57,.48-1.57,1.11,0,1.55,4.38,.53,4.38,3.28,0,1.19-.95,2.14-2.78,2.14-1.16,0-2.14-.35-2.86-1.11Z"/><path class="uuid-c58bbf2a-fed2-4eda-9082-0ef63af78108" d="M22.6,5.19c0-.41,.34-.75,.73-.75s.75,.34,.75,.75-.34,.73-.75,.73-.73-.32-.73-.73Zm.19,8.82V6.94h1.1v7.08h-1.1Z"/><path class="uuid-c58bbf2a-fed2-4eda-9082-0ef63af78108" d="M25.71,15.83l.56-.82c.59,.7,1.29,.97,2.3,.97,1.17,0,2.27-.57,2.27-2.12v-1.01c-.51,.72-1.38,1.26-2.37,1.26-1.85,0-3.15-1.38-3.15-3.66s1.29-3.68,3.15-3.68c.95,0,1.8,.47,2.37,1.25v-1.07h1.1v6.87c0,2.34-1.64,3.08-3.37,3.08-1.2,0-2.02-.23-2.86-1.05Zm5.13-3.85v-3.09c-.38-.62-1.23-1.14-2.11-1.14-1.42,0-2.27,1.13-2.27,2.7s.85,2.7,2.27,2.7c.88,0,1.73-.54,2.11-1.16Z"/><path class="uuid-c58bbf2a-fed2-4eda-9082-0ef63af78108" d="M38.54,14.01v-4.63c0-1.25-.63-1.64-1.58-1.64-.86,0-1.68,.53-2.09,1.1v5.17h-1.1V6.94h1.1v1.03c.5-.59,1.46-1.2,2.52-1.2,1.48,0,2.26,.75,2.26,2.29v4.97h-1.1Z"/><path class="uuid-c58bbf2a-fed2-4eda-9082-0ef63af78108" d="M41.06,10.47c0-2.05,1.46-3.71,3.49-3.71,2.14,0,3.4,1.67,3.4,3.79v.28h-5.73c.09,1.33,1.03,2.45,2.55,2.45,.81,0,1.63-.32,2.18-.89l.53,.72c-.7,.7-1.66,1.08-2.81,1.08-2.09,0-3.6-1.51-3.6-3.72Zm3.47-2.8c-1.51,0-2.26,1.27-2.31,2.36h4.64c-.01-1.05-.72-2.36-2.33-2.36Z"/><path class="uuid-c58bbf2a-fed2-4eda-9082-0ef63af78108" d="M54.47,14.01v-1.05c-.53,.72-1.39,1.23-2.39,1.23-1.85,0-3.15-1.41-3.15-3.71s1.29-3.72,3.15-3.72c.95,0,1.82,.47,2.39,1.25v-3.76h1.1V14.01h-1.1Zm0-1.92v-3.21c-.4-.62-1.24-1.14-2.12-1.14-1.42,0-2.27,1.17-2.27,2.74s.85,2.72,2.27,2.72c.88,0,1.73-.5,2.12-1.11Z"/><path class="uuid-c58bbf2a-fed2-4eda-9082-0ef63af78108" d="M60.82,14.01V4.24h1.1v3.76c.57-.78,1.42-1.25,2.39-1.25,1.85,0,3.15,1.46,3.15,3.72s-1.3,3.71-3.15,3.71c-1,0-1.86-.51-2.39-1.23v1.05h-1.1Zm3.21-.81c1.44,0,2.29-1.16,2.29-2.72s-.85-2.74-2.29-2.74c-.86,0-1.73,.53-2.11,1.14v3.21c.38,.62,1.25,1.11,2.11,1.11Z"/><path class="uuid-c58bbf2a-fed2-4eda-9082-0ef63af78108" d="M68.65,15.79c.16,.07,.43,.12,.6,.12,.48,0,.81-.16,1.05-.75l.47-1.07-2.96-7.15h1.19l2.36,5.8,2.34-5.8h1.2l-3.54,8.51c-.42,1.03-1.14,1.42-2.08,1.44-.23,0-.6-.04-.81-.1l.18-1Z"/></g></g></g></g></svg>